{"title":"A.Knights.Tale(2001)1080p.BrRip.H264.AAC.Raven","uid":11221163,"size":1984821336,"categoryP":"video","categoryS":"hd___movies","magnet":"?xt=urn:btih:7a2bfce28f4f04db5e5a1d5a0c96789827cf95c5&amp;dn=A.Knights.Tale%282001%291080p.BrRip.H264.AAC.Raven&amp;tr=udp%3A%2F%2Ftracker.openbittorrent.com%3A80&amp;tr=udp%3A%2F%2Fopen.demonii.com%3A1337&amp;tr=udp%3A%2F%2Ftracker.coppersurfer.tk%3A6969&amp;tr=udp%3A%2F%2Fexodus.desync.com%3A6969","seeders":2,"leechers":1,"uploader":"Raven1969","files":-1,"time":1413386851,"description":"A.Knights.Tale(2001)1080p.BrRip.H264.AAC.Raven.mp4\n\n\n\n\n\nEnglish, French, Indonesian, Vietnamese, Danish, Spanish, Swedish, Turkish, Romanian, Portuguese, Norwegian, Arabic, Persian and Finnish subs included.  \n\n\n\nScreen images:\n\n\n &lt;a href=&quot;\nhttp://i.imgur.com/ThA2MdX.png&quot; rel=&quot;nofollow&quot; target=&quot;_NEW&quot;&gt;\nhttp://i.imgur.com/ThA2MdX.png&lt;/a&gt;\n\n &lt;a href=&quot;\nhttp://i.imgur.com/PQ8alEn.png&quot; rel=&quot;nofollow&quot; target=&quot;_NEW&quot;&gt;\nhttp://i.imgur.com/PQ8alEn.png&lt;/a&gt;\n\n &lt;a href=&quot;\nhttp://i.imgur.com/GvPfMly.png&quot; rel=&quot;nofollow&quot; target=&quot;_NEW&quot;&gt;\nhttp://i.imgur.com/GvPfMly.png&lt;/a&gt;\n\n &lt;a href=&quot;\nhttp://i.imgur.com/pSJsPaR.png&quot; rel=&quot;nofollow&quot; target=&quot;_NEW&quot;&gt;\nhttp://i.imgur.com/pSJsPaR.png&lt;/a&gt;\n\n &lt;a href=&quot;\nhttp://i.imgur.com/6J6prxa.png&quot; rel=&quot;nofollow&quot; target=&quot;_NEW&quot;&gt;\nhttp://i.imgur.com/6J6prxa.png&lt;/a&gt;\n\n &lt;a href=&quot;\nhttp://i.imgur.com/Wcnu2n8.png&quot; rel=&quot;nofollow&quot; target=&quot;_NEW&quot;&gt;\nhttp://i.imgur.com/Wcnu2n8.png&lt;/a&gt;\n &lt;a href=&quot;\nhttp://www.imdb.com/title/tt0183790&quot; rel=&quot;nofollow&quot; target=&quot;_NEW&quot;&gt;\nhttp://www.imdb.com/title/tt0183790&lt;/a&gt;\n\n\n\n\nIMDB Rating:  6.9\n\n\n\n\nStoryline:\n\nAfter his master dies, a peasant squire, fueled by his desire for food and glory, creates a new identity for himself as a knight.\n\nInspired by &quot;The Canterbury Tales,&quot; as well as the story of Ulrich von Lichtenstein, this is the story of William, a young squire with a gift for jousting. After his master dies suddenly, the squire hits the road with his cohorts Roland and Wat. On the journey, they stumble across an unknown writer, Chaucer. William, lacking a proper pedigree, convinces Chaucer to forge genealogy documents that will pass him off as a knight. With his newly-minted history in hand, the young man sets out to prove himself a worthy knight at the country's jousting competition, and finds romance along the way.\n\n\n\n\nGeneral\nFormat                                   : MPEG-4\nFormat profile                           : Base Media\nCodec ID                                 : isom\nFile size                                : 1.84 GiB\nDuration                                 : 2h 12mn\nOverall bit rate mode                    : Variable\nOverall bit rate                         : 1 996 Kbps\nEncoded date                             : UTC 2014-10-15 11:36:43\nTagged date                              : UTC 2014-10-15 11:36:43\n\nVideo\nID                                       : 1\nFormat                                   : AVC\nFormat/Info                              : Advanced Video Codec\nFormat profile                           : &lt;a class=&quot;__cf_email__&quot; href=&quot;/cdn-cgi/l/email-protection&quot; data-cfemail=&quot;a7efcec0cfe7eb938997&quot;&gt;[email&amp;#160;protected]&lt;/a&gt;&lt;script cf-hash='f9e31' type=&quot;text/javascript&quot;&gt;\n/* &lt;![CDATA[ */!function(){try{var t=&quot;currentScript&quot;in document?document.currentScript:function(){for(var t=document.getElementsByTagName(&quot;script&quot;),e=t.length;e--;)if(t[e].getAttribute(&quot;cf-hash&quot;))return t[e]}();if(t&amp;&amp;t.previousSibling){var e,r,n,i,c=t.previousSibling,a=c.getAttribute(&quot;data-cfemail&quot;);if(a){for(e=&quot;&quot;,r=parseInt(a.substr(0,2),16),n=2;a.length-n;n+=2)i=parseInt(a.substr(n,2),16)^r,e+=String.fromCharCode(i);e=document.createTextNode(e),c.parentNode.replaceChild(e,c)}}}catch(u){}}();/* ]]&gt; */&lt;/script&gt;\nFormat settings, CABAC                   : Yes\nFormat settings, ReFrames                : 5 frames\nCodec ID                                 : avc1\nCodec ID/Info                            : Advanced Video Coding\nDuration                                 : 2h 12mn\nBit rate                                 : 1 900 Kbps\nMaximum bit rate                         : 10.5 Mbps\nWidth                                    : 1 920 pixels\nHeight                                   : 816 pixels\nDisplay aspect ratio                     : 2.35:1\nOriginal display aspect ratio            : 2.35:1\nFrame rate mode                          : Constant\nFrame rate                               : 23.976 fps\nColor space                              : YUV\nChroma subsampling                       : 4:2:0\nBit depth                                : 8 bits\nScan type                                : Progressive\nBits/(Pixel*Frame)                       : 0.051\nStream size                              : 1.75 GiB (95%)\nWriting library                          : x264 core 132 \nEncoded date                             : UTC 2014-10-15 11:36:43\nTagged date                              : UTC 2014-10-15 11:37:31\n\nAudio\nID                                       : 2\nFormat                                   : AAC\nFormat/Info                              : Advanced Audio Codec\nFormat profile                           : LC\nCodec ID                                 : 40\nDuration                                 : 2h 12mn\nBit rate mode                            : Variable\nBit rate                                 : 92.0 Kbps\nMaximum bit rate                         : 115 Kbps\nChannel(s)                               : 2 channels\nChannel positions                        : Front: L R\nSampling rate                            : 48.0 KHz\nCompression mode                         : Lossy\nStream size                              : 87.0 MiB (5%)\nEncoded date                             : UTC 2014-10-15 09:27:23\nTagged date                              : UTC 2014-10-15 11:37:31\n\n\n\n\nPLEASE  SEED FOR AS LONG AS POSSIBLE TO KEEP THE TORRENT ALIVE :-)","torrent":{"xt":"urn:btih:7a2bfce28f4f04db5e5a1d5a0c96789827cf95c5","amp;dn":"A.Knights.Tale%282001%291080p.BrRip.H264.AAC.Raven","amp;tr":["udp%3A%2F%2Ftracker.openbittorrent.com%3A80","udp%3A%2F%2Fopen.demonii.com%3A1337","udp%3A%2F%2Ftracker.coppersurfer.tk%3A6969","udp%3A%2F%2Fexodus.desync.com%3A6969"],"infoHash":"7a2bfce28f4f04db5e5a1d5a0c96789827cf95c5","infoHashBuffer":{"type":"Buffer","data":[122,43,252,226,143,79,4,219,94,90,29,90,12,150,120,152,39,207,149,197]},"announce":[],"urlList":[]}}